Hunger Games - Beginning of a Rebellion Part 1 - Music of PANEM!


General
Complete name                  : D:jDownloadEDHunger Games - Beginning of a Rebellion Part 1 - SoundtrackMusic of Panem_ Beginning of a Rebellion Part 1 - Hunger Games Fan Made Soundtrack.mp4
Format                         : MPEG-4
Format profile                 : Base Media / Version 2
Codec ID                       : mp42
File size                      : 538 MiB
Duration                       : 1h 5mn
Overall bit rate mode          : Variable
Overall bit rate               : 1 150 Kbps

Video
ID                             : 1
Format                         : AVC
Format/Info                    : Advanced Video Codec
Format profile                 : High@L3.1
Format settings, CABAC         : Yes
Format settings, ReFrames      : 1 frame
Format settings, GOP           : M=1, N=30
Codec ID                       : avc1
Codec ID/Info                  : Advanced Video Coding
Duration                       : 1h 5mn
Bit rate                       : 993 Kbps
Maximum bit rate               : 4 188 Kbps
Width                          : 1 280 pixels
Height                         : 720 pixels
Display aspect ratio           : 16:9
Frame rate mode                : Variable
Frame rate                     : 23.976 fps
Minimum frame rate             : 23.810 fps
Maximum frame rate             : 24.390 fps
Color space                    : YUV
Chroma subsampling             : 4:2:0
Bit depth                      : 8 bits
Scan type                      : Progressive
Bits/(Pixel*Frame)             : 0.045
Stream size                    : 465 MiB (86%)

Audio
ID                             : 2
Format                         : AAC
Format/Info                    : Advanced Audio Codec
Format profile                 : LC
Codec ID                       : 40
Duration                       : 1h 5mn
Bit rate mode                  : Variable
Bit rate                       : 152 Kbps
Maximum bit rate               : 251 Kbps
Channel(s)                     : 2 channels
Channel positions              : Front: L R
Sampling rate                  : 44.1 KHz
Compression mode               : Lossy
Stream size                    : 71.1 MiB (13%)
